<?xml version="1.0" standalone="no"?>
<!DOCTYPE svg PUBLIC "-//W3C//DTD SVG 20010904//EN"
 "http://www.w3.org/TR/2001/REC-SVG-20010904/DTD/svg10.dtd">
<svg version="1.0" xmlns="http://www.w3.org/2000/svg"
 width="32.000000pt" height="32.000000pt" viewBox="0 0 32.000000 32.000000"
 preserveAspectRatio="xMidYMid meet">

<g transform="translate(0.000000,32.000000) scale(0.100000,-0.100000)"
fill="#000000" stroke="none">
<path d="M72 248 c-16 -16 -16 -160 0 -176 7 -7 42 -12 88 -12 46 0 81 5 88
12 16 16 16 160 0 176 -16 16 -160 16 -176 0z m158 -18 c15 -15 20 -33 20 -70
0 -37 -5 -55 -20 -70 -15 -15 -33 -20 -70 -20 -68 0 -90 22 -90 90 0 68 22 90
90 90 37 0 55 -5 70 -20z"/>
<path d="M206 221 c-4 -5 -2 -12 3 -15 5 -4 12 -2 15 3 4 5 2 12 -3 15 -5 4
-12 2 -15 -3z"/>
<path d="M122 198 c-15 -15 -15 -61 0 -76 15 -15 61 -15 76 0 15 15 15 61 0
76 -7 7 -24 12 -38 12 -14 0 -31 -5 -38 -12z m63 -38 c0 -18 -6 -26 -23 -28
-13 -2 -25 3 -28 12 -10 26 4 48 28 44 17 -2 23 -10 23 -28z"/>
</g>
</svg>
