<?xml version="1.0" standalone="no"?>
<!DOCTYPE svg PUBLIC "-//W3C//DTD SVG 20010904//EN"
 "http://www.w3.org/TR/2001/REC-SVG-20010904/DTD/svg10.dtd">
<svg version="1.0" xmlns="http://www.w3.org/2000/svg"
 width="32.000000pt" height="32.000000pt" viewBox="0 0 32.000000 32.000000"
 preserveAspectRatio="xMidYMid meet">

<g transform="translate(0.000000,32.000000) scale(0.100000,-0.100000)"
fill="#000000" stroke="none">
<path d="M95 306 c-101 -44 -125 -178 -46 -257 65 -65 157 -65 222 0 124 124
-15 327 -176 257z m15 -86 c0 -11 -7 -20 -15 -20 -8 0 -15 9 -15 20 0 11 7 20
15 20 8 0 15 -9 15 -20z m0 -85 c0 -42 -3 -55 -15 -55 -12 0 -15 13 -15 55 0
42 3 55 15 55 12 0 15 -13 15 -55z m118 43 c18 -15 16 -98 -2 -98 -10 0 -16
13 -18 38 -2 25 -8 37 -18 37 -10 0 -16 -12 -18 -37 -3 -30 -7 -38 -23 -38
-16 0 -19 7 -19 54 l0 55 43 -1 c23 0 48 -5 55 -10z"/>
</g>
</svg>
