<?xml version="1.0" standalone="no"?>
<!DOCTYPE svg PUBLIC "-//W3C//DTD SVG 20010904//EN"
 "http://www.w3.org/TR/2001/REC-SVG-20010904/DTD/svg10.dtd">
<svg version="1.0" xmlns="http://www.w3.org/2000/svg"
 width="32.000000pt" height="32.000000pt" viewBox="0 0 32.000000 32.000000"
 preserveAspectRatio="xMidYMid meet">

<g transform="translate(0.000000,32.000000) scale(0.100000,-0.100000)"
fill="#000000" stroke="none">
<path d="M0 253 l0 -68 19 41 c17 38 54 73 91 87 8 3 -13 6 -47 6 l-63 1 0
-67z"/>
<path d="M220 309 c35 -14 70 -49 86 -84 13 -29 13 -28 14 33 l0 62 -62 -1
c-52 0 -59 -2 -38 -10z"/>
<path d="M173 200 c-6 -24 -15 -25 -53 -5 -30 15 -30 15 -28 -12 1 -16 6 -34
11 -40 5 -7 6 -13 1 -13 -4 0 1 -7 12 -15 17 -13 17 -14 2 -15 -32 0 -19 -20
12 -20 63 0 97 33 115 110 6 24 3 26 -30 28 -30 2 -38 -1 -42 -18z"/>
<path d="M0 68 l0 -68 63 1 c34 0 55 3 47 6 -37 14 -74 49 -91 87 l-19 41 0
-67z"/>
<path d="M310 106 c0 -22 -51 -77 -85 -92 -29 -13 -28 -13 33 -14 l62 0 0 60
c0 33 -2 60 -5 60 -3 0 -5 -6 -5 -14z"/>
</g>
</svg>
